<svg width="169" height="60" viewBox="0 0 169 60" fill="none" xmlns="http://www.w3.org/2000/svg">
<path d="M25.7143 24.4898L60 20.4082V60H25.7143V24.4898Z" fill="#1F28CE"/>
<path d="M20 0H37.1429V21.2245H20V0Z" fill="#FF9B21"/>
<path d="M0 25.2119L20.8163 22.8571V44.9922L0 47.3469V25.2119Z" fill="#E87613"/>
<path d="M94.54 40.36C92.4 40.36 90.46 39.9 88.72 38.98C87 38.04 85.64 36.75 84.64 35.11C83.66 33.45 83.17 31.58 83.17 29.5C83.17 27.42 83.66 25.56 84.64 23.92C85.64 22.26 87 20.97 88.72 20.05C90.46 19.11 92.41 18.64 94.57 18.64C96.39 18.64 98.03 18.96 99.49 19.6C100.97 20.24 102.21 21.16 103.21 22.36L100.09 25.24C98.67 23.6 96.91 22.78 94.81 22.78C93.51 22.78 92.35 23.07 91.33 23.65C90.31 24.21 89.51 25 88.93 26.02C88.37 27.04 88.09 28.2 88.09 29.5C88.09 30.8 88.37 31.96 88.93 32.98C89.51 34 90.31 34.8 91.33 35.38C92.35 35.94 93.51 36.22 94.81 36.22C96.91 36.22 98.67 35.39 100.09 33.73L103.21 36.61C102.21 37.83 100.97 38.76 99.49 39.4C98.01 40.04 96.36 40.36 94.54 40.36ZM116.103 40.36C113.963 40.36 112.023 39.9 110.283 38.98C108.563 38.04 107.203 36.75 106.203 35.11C105.223 33.45 104.733 31.58 104.733 29.5C104.733 27.42 105.223 25.56 106.203 23.92C107.203 22.26 108.563 20.97 110.283 20.05C112.023 19.11 113.973 18.64 116.133 18.64C117.953 18.64 119.593 18.96 121.053 19.6C122.533 20.24 123.773 21.16 124.773 22.36L121.653 25.24C120.233 23.6 118.473 22.78 116.373 22.78C115.073 22.78 113.913 23.07 112.893 23.65C111.873 24.21 111.073 25 110.493 26.02C109.933 27.04 109.653 28.2 109.653 29.5C109.653 30.8 109.933 31.96 110.493 32.98C111.073 34 111.873 34.8 112.893 35.38C113.913 35.94 115.073 36.22 116.373 36.22C118.473 36.22 120.233 35.39 121.653 33.73L124.773 36.61C123.773 37.83 122.533 38.76 121.053 39.4C119.573 40.04 117.923 40.36 116.103 40.36ZM144.314 36.1V40H128.054V19H143.924V22.9H132.884V27.46H142.634V31.24H132.884V36.1H144.314ZM162.011 35.5H152.261L150.401 40H145.421L154.781 19H159.581L168.971 40H163.871L162.011 35.5ZM160.481 31.81L157.151 23.77L153.821 31.81H160.481Z" fill="#333333"/>
</svg>
